<?xml version="1.0" encoding="UTF-8" standalone="no"?>
<!-- Created with Inkscape (http://www.inkscape.org/) -->

<svg
   xmlns:dc="http://purl.org/dc/elements/1.1/"
   xmlns:cc="http://creativecommons.org/ns#"
   xmlns:rdf="http://www.w3.org/1999/02/22-rdf-syntax-ns#"
   xmlns:svg="http://www.w3.org/2000/svg"
   xmlns="http://www.w3.org/2000/svg"
   xmlns:sodipodi="http://sodipodi.sourceforge.net/DTD/sodipodi-0.dtd"
   xmlns:inkscape="http://www.inkscape.org/namespaces/inkscape"
   version="1.1"
   id="svg138"
   width="433.91385"
   height="511.68036"
   viewBox="0 0 433.91385 511.68036"
   sodipodi:docname="cart-icon.svg"
   inkscape:version="0.92.4 (unknown)">
  <path
     d="m 2.8799765,508.75729 c -1.89330002,-1.89334 -2.90770002,-3.91894 -2.87940002065,-5.75 C 0.02457648,501.45249 4.0113765,423.90537 8.8599765,330.68037 l 8.8157995,-169.5 13.6307,-22.5 c 7.4969,-12.375 14.585,-23.2875 15.7514,-24.25 1.9528,-1.61151 5.8228,-1.75 48.9008,-1.75 h 46.780204 l 0.4761,-25.750001 c 0.4202,-22.727551 0.7345,-26.628408 2.6773,-33.233665 7.2986,-24.814204 25.6989,-43.254061 51.0646,-51.174472 10.7699,-3.36288572 29.2483,-3.36299062 39.957,-2.269e-4 25.6947,8.0686859 43.745,26.1426749 51.1077,51.1746989 1.9428,6.605257 2.2571,10.506114 2.6773,33.233665 l 0.476,25.750001 h 46.7803 c 43.078,0 46.948,0.13849 48.9008,1.75 1.1664,0.9625 8.2545,11.875 15.7514,24.25 l 13.6307,22.5 8.8157,169.5 c 4.8487,93.225 8.8354,170.77212 8.8595,172.32692 0.028,1.83106 -0.9861,3.85666 -2.8794,5.75 l -2.9231,2.92308 H 216.95688 5.8030765 Z M 415.95478,492.93037 c 0,-0.9625 -3.6002,-71.725 -7.9979,-157.25 -4.3977,-85.525 -7.9967,-156.9625 -7.9979,-158.75 v -3.25 h -183 -183.000004 v 3.25 c 0,1.7875 -3.6002,73.225 -7.9979,158.75 -4.3977,85.525 -7.9967,156.2875 -7.9979,157.25 0,1.66081 10.14,1.75 198.997904,1.75 188.858,0 198.9999,-0.0892 198.9979,-1.75 z M 201.50918,345.02829 c -22.6483,-4.85394 -41.5413,-20.06188 -51.4991,-41.45446 -5.4418,-11.69066 -6.2491,-16.51847 -6.791,-40.61379 -0.4742,-21.08299 -0.6018,-22.25268 -2.4915,-22.85247 -3.6129,-1.14667 -10.0451,-7.84277 -12.4178,-12.9272 -8.1365,-17.43541 6.3162,-37.98658 25.4914,-36.24784 12.9512,1.17438 22.5548,10.52513 23.8669,23.23869 1.0012,9.70032 -4.6344,20.46019 -13.1057,25.02227 l -3.6055,1.94169 v 20.0625 c 0,22.63247 0.8471,27.59314 6.5718,38.48739 6.4902,12.3507 18.8518,22.61457 32.6007,27.06823 25.0764,8.12302 53.9652,-3.67923 66.2557,-27.06823 5.7248,-10.89425 6.5718,-15.85492 6.5718,-38.48739 v -20.0625 l -3.6055,-1.94169 c -8.4775,-4.56547 -14.1069,-15.32121 -13.1041,-25.03735 1.3106,-12.69908 10.9259,-22.0503 23.8808,-23.22501 19.1597,-1.73734 33.6087,18.82183 25.476,36.24924 -2.3727,5.08443 -8.805,11.78053 -12.4178,12.9272 -1.8897,0.59977 -2.0174,1.77035 -2.4934,22.85247 -0.424,18.78087 -0.8337,23.35627 -2.6469,29.55897 -11.1002,37.97282 -48.4936,60.66261 -86.5368,52.50928 z m -49.5523,-128.34792 c 1.5017,0 3.8654,0.89285 5.2527,1.98411 l 2.5224,1.9841 0.56,-2.14167 c 1.6266,-6.21995 -5.4085,-12.28141 -11.3822,-9.80701 -3.6618,1.51676 -6.3566,6.2356 -5.5031,9.63627 l 0.6125,2.4404 2.6037,-2.0481 c 1.4321,-1.12646 3.8324,-2.0481 5.334,-2.0481 z m 137.7608,-3.37556 c -3.3136,-6.94868 -12.4719,-6.95348 -15.3738,-0.008 -0.7519,1.79951 -1.1009,3.96552 -0.7756,4.81336 0.5256,1.36954 0.8282,1.37578 2.7126,0.0559 2.9485,-2.0652 8.0042,-1.8548 10.8153,0.45009 2.3365,1.91584 2.3702,1.91548 3.2792,-0.0351 0.6331,-1.35846 0.4287,-2.99784 -0.6577,-5.27618 z m 102.2392,-58.07102 c 0,-0.24562 -3.4045,-6.09562 -7.5655,-13 l -7.5655,-12.55342 H 216.95688 57.087976 l -7.5655,12.55342 c -4.1611,6.90438 -7.5656,12.75438 -7.5656,13 0,0.24562 78.750004,0.44658 175.000004,0.44658 96.25,0 175,-0.20096 175,-0.44658 z m -119,-66.159076 c 0,-25.964933 -0.7303,-30.955237 -6.082,-41.556885 -1.6166,-3.202357 -5.8632,-8.922106 -9.4371,-12.710553 -17.4007,-18.44566 -43.5399,-22.703583 -66.9286,-10.902247 -8.0532,4.063481 -19.3103,15.36599 -23.4239,23.518436 -5.4919,10.884042 -6.1284,15.190476 -6.1284,41.467003 v 23.789902 h 56 56 z"
     id="path63"
     inkscape:connector-curvature="0" />
</svg>
