<?xml version="1.0" encoding="UTF-8" standalone="no"?>
<!-- Created with Inkscape (http://www.inkscape.org/) -->

<svg
   xmlns:dc="http://purl.org/dc/elements/1.1/"
   xmlns:cc="http://creativecommons.org/ns#"
   xmlns:rdf="http://www.w3.org/1999/02/22-rdf-syntax-ns#"
   xmlns:svg="http://www.w3.org/2000/svg"
   xmlns="http://www.w3.org/2000/svg"
   xmlns:sodipodi="http://sodipodi.sourceforge.net/DTD/sodipodi-0.dtd"
   xmlns:inkscape="http://www.inkscape.org/namespaces/inkscape"
   version="1.1"
   id="svg153"
   width="437.89331"
   height="435.8941"
   viewBox="0 0 437.89331 435.8941"
   sodipodi:docname="category-icon-3.svg"
   inkscape:version="0.92.4 (unknown)">
  <path
     d="M 2.45454,433.43955 C 1.10454,432.08955 0,429.918 0,428.61387 0,425.13631 3.94519,421.8941 8.17677,421.8941 h 3.54786 l 0.65414,-5.56573 C 14.07014,401.93751 26.73548,389.8941 40.17813,389.8941 H 44 v -4.91263 c 0,-8.97318 6.29477,-18.44137 16.34651,-24.58737 1.457,-0.89086 1.30602,-1.48479 -1.38339,-5.44199 -6.63845,-9.76783 -7.63033,-22.55232 -2.60186,-33.53593 3.64371,-7.95893 15.2147,-19.52208 19.53529,-19.52208 4.86727,0 7.10345,2.98425 7.10345,9.47976 0,7.46493 2.36886,12.96705 6.748,15.67351 2.92017,1.80477 5.68278,2.308 15.6491,2.85061 14.01977,0.7633 18.88407,2.4488 26.00186,9.00975 4.20261,3.87383 10.60104,14.52442 10.60104,17.64609 0,0.8877 1.29676,1.34028 3.84028,1.34028 4.93043,0 15.2247,5.10361 18.77482,9.30803 4.23426,5.01463 7.3642,12.62907 7.37513,17.94197 l 0.01,4.75 h 3.82186 c 13.44265,0 26.108,12.04341 27.79936,26.43427 l 0.65414,5.56573 h 27.36232 27.36232 v -39.77749 c 0,-34.38327 0.2111,-40.07889 1.5567,-42 0.85619,-1.22238 2.20619,-2.22251 3,-2.22251 1.1649,0 1.4433,-1.99934 1.4433,-10.36514 0,-8.97194 0.27858,-10.7193 2.07258,-13 l 2.07235,-2.63486 H 314.5 359.85484 l 2.07258,2.63486 c 1.794,2.2807 2.07258,4.02806 2.07258,13 0,8.3658 0.2784,10.36514 1.4433,10.36514 0.79381,0 2.14381,1.00013 3,2.22251 1.3456,1.92111 1.5567,7.61673 1.5567,42 v 39.77749 h 31.82569 31.82568 l 2.17432,2.31445 c 2.84857,3.03217 2.75245,6.19832 -0.28024,9.231 l -2.45454,2.45455 H 219 4.90909 Z M 190,419.20982 c 0,-4.64035 -3.67959,-10.76736 -7.88624,-13.13163 l -3.88607,-2.18409 H 108 37.7723 l -3.88606,2.18409 C 29.67959,408.44246 26,414.56947 26,419.20982 v 2.68428 h 82 82 z M 356,386.3941 v -35.5 H 314.5 273 v 35.5 35.5 h 41.5 41.5 z m -198.00374,-0.25 c -0.005,-4.65295 -2.95079,-9.642 -7.23712,-12.2554 -3.10687,-1.89429 -5.10456,-1.98712 -42.75914,-1.98712 -37.65458,0 -39.65227,0.0928 -42.75914,1.98712 -4.28633,2.6134 -7.23249,7.60245 -7.23713,12.2554 l -0.004,3.75 h 50 50 l -0.004,-3.75 z M 127,356.62194 c 0,-2.03773 -5.89516,-8.62001 -9.34,-10.42864 -2.07801,-1.09101 -7.16587,-1.91617 -14.8593,-2.40992 -16.67506,-1.07017 -24.39604,-4.74971 -29.79207,-14.19782 l -2.92847,-5.12755 -1.64563,3.93853 c -3.61747,8.65784 0.0779,19.49946 8.5596,25.11237 5.74376,3.80104 8.34508,4.16927 30.25587,4.28283 15.37043,0.0797 19.75,-0.17974 19.75,-1.1698 z M 350,331.3941 v -5.5 H 314.5 279 v 5.5 5.5 H 314.5 350 Z M 133.5,320.02011 c -4.33104,-2.69466 -19.5,-18.59782 -19.5,-20.44383 0,-1.72196 5.55459,-10.04086 24.94682,-37.36187 l 12.90379,-18.17969 -9.42531,-8.85354 C 134.40449,227.64693 133,225.85959 133,223.18661 c 0,-2.64283 13.5363,-20.48106 85.34389,-112.46677 60.83886,-77.934732 86.1181,-109.6005786 88.04025,-110.28293264 1.98256,-0.703803 3.31156,-0.571441 5.0203,0.5 C 314.8784,3.1152044 423.27537,105.60563 424.90376,108.25167 c 0.8058,1.30937 1.14146,3.32613 0.78798,4.73449 -0.40857,1.62787 -22.922,22.00545 -66.90376,60.5566 -36.45839,31.95672 -83.54001,73.23397 -104.62583,91.72723 -31.66717,27.77362 -38.84709,33.62411 -41.26458,33.62411 -2.29479,0 -4.89975,-1.84581 -12.06442,-8.54856 -5.02572,-4.70171 -9.70922,-8.32924 -10.40778,-8.06118 -0.69855,0.26806 -12.35885,9.28992 -25.91178,20.04856 -13.55292,10.75865 -25.40036,19.5595 -26.32764,19.55744 -0.92727,-0.002 -3.03595,-0.84367 -4.68595,-1.87025 z m 26.44904,-31.83474 c 11.00032,-8.6852 19.89941,-16.2484 19.77577,-16.80712 -0.12365,-0.55872 -4.12665,-4.74901 -8.89557,-9.31175 l -8.67077,-8.2959 -12.23551,17.31175 c -6.72954,9.52146 -13.80004,19.47857 -15.71224,22.12692 l -3.47673,4.81516 3.35158,3.45795 c 1.84336,1.90187 3.91662,3.24112 4.60724,2.97611 0.69061,-0.26502 10.25592,-7.58792 21.25623,-16.27312 z m 143.37503,-84.66182 c 48.81923,-42.82881 88.63031,-78.2579 88.46908,-78.73132 C 391.63192,124.31881 376.65,109.90984 358.5,92.772283 340.35,75.634733 318.89696,55.357171 310.82658,47.711046 L 296.15317,33.809 286.57828,46.101551 c -5.26618,6.760904 -9.57565,12.555575 -9.57658,12.877048 -9.4e-4,0.321472 10.57091,10.583604 23.49298,22.804724 13.39101,12.66463 23.7508,23.240647 24.09023,24.593067 0.32755,1.30506 0.20455,3.07151 -0.27334,3.92544 -2.30678,4.12199 -106.90646,113.70347 -109.04712,114.24075 -1.31551,0.33017 -3.22335,0.20683 -4.23964,-0.27409 -1.01629,-0.48091 -9.61339,-8.19914 -19.10466,-17.1516 -9.49128,-8.95247 -17.59954,-16.15247 -18.01836,-16 -0.41882,0.15246 -6.19996,7.23282 -12.84696,15.73411 -11.46802,14.66722 -11.99528,15.54287 -10.32015,17.13943 30.46721,29.03818 61.85796,57.91814 62.71119,57.69523 0.61378,-0.16036 41.05898,-35.33331 89.8782,-78.16211 z M 263.8668,154.68823 C 287.59006,129.55 307,108.55762 307,108.0385 c 0,-0.97367 -37.28154,-36.404907 -38.85953,-36.930907 -0.48645,-0.16215 -19.90076,24.06978 -43.14291,53.848727 l -42.25845,54.14356 3.38045,3.27778 c 1.85924,1.80277 8.73675,8.31855 15.28335,14.47949 l 11.90291,11.20172 3.71389,-3.83239 c 2.04263,-2.10781 23.12382,-24.40002 46.84709,-49.53825 z m 143.90241,-43.78011 c -0.20401,-0.45565 -74.85116,-71.082 -95.57565,-90.427573 l -3.30644,-3.086444 -1.91988,2.5 c -1.05593,1.375 -1.81803,2.75301 -1.69356,3.062244 0.12448,0.309235 22.2452,21.348724 49.15716,46.754416 l 48.93085,46.192177 2.33837,-2.19678 c 1.2861,-1.20823 2.21722,-2.46735 2.06915,-2.79804 z"
     id="path265"
     inkscape:connector-curvature="0" />
</svg>
