<?xml version="1.0" encoding="UTF-8" standalone="no"?>
<!-- Created with Inkscape (http://www.inkscape.org/) -->

<svg
   xmlns:dc="http://purl.org/dc/elements/1.1/"
   xmlns:cc="http://creativecommons.org/ns#"
   xmlns:rdf="http://www.w3.org/1999/02/22-rdf-syntax-ns#"
   xmlns:svg="http://www.w3.org/2000/svg"
   xmlns="http://www.w3.org/2000/svg"
   xmlns:sodipodi="http://sodipodi.sourceforge.net/DTD/sodipodi-0.dtd"
   xmlns:inkscape="http://www.inkscape.org/namespaces/inkscape"
   version="1.1"
   id="svg143"
   width="360"
   height="438"
   viewBox="0 0 360 438"
   sodipodi:docname="category-icon-4.svg"
   inkscape:version="0.92.4 (unknown)">
  <path
     d="m 2,436 c -1.11111,-1.11111 -2,-3.33333 -2,-5 0,-1.66667 0.88889,-3.88889 2,-5 1.79085,-1.79085 3.33335,-2 14.75,-2.00002 l 12.75,-3e-5 V 308.24998 192.5 l 2.12416,-4.5 c 2.98959,-6.33342 7.37334,-10.34879 17.06695,-15.63279 4.62124,-2.51904 9.0308,-5.54468 9.79903,-6.72364 0.76823,-1.17896 1.85395,-4.99785 2.41271,-8.48641 1.25868,-7.85846 4.7663,-14.00542 10.32421,-18.09276 C 75.52255,135.90547 83.40591,133 87.6815,133 H 90 V 96.499998 C 90,52.391649 88.70812,56 104.5,56 H 115 V 45 34 L 97.75,33.97614 C 74.46009,33.94393 70.63043,32.878288 65.1615,24.908049 63.23099,22.09459 62.89086,20.529018 63.21196,15.9346 63.67979,9.24062 66.47958,4.816303 72.04438,1.977358 75.77671,0.073269 78.12036,0 135.29438,0 h 59.37405 l 5.91579,4.129005 c 29.66983,20.708481 35.58412,25.280647 37.46131,28.960246 4.90494,9.614481 -0.2888,21.014264 -10.87253,23.864164 -6.09011,1.639893 -10.55458,-0.356149 -26.95957,-12.05352 L 184.92687,34 H 169.96343 155 v 11 11 h 10.38922 c 8.73688,0 10.76468,0.303877 12.75,1.910648 l 2.36078,1.91066 0.29581,36.39873 0.2958,36.398732 5.87556,1.21358 c 11.94583,2.46737 20.15708,11.03968 22.09374,23.06524 0.55661,3.45625 1.71843,7.3622 2.58181,8.67989 0.86339,1.31769 5.16675,4.31234 9.56304,6.65478 9.4594,5.04018 14.29285,9.4566 17.18015,15.69787 2.0293,4.38659 2.1261,6.25715 2.41366,46.639 l 0.29956,42.06913 6.70044,2.16224 c 10.24677,3.30666 18.85391,8.8558 28.22881,18.1995 9.33908,9.30799 14.63103,18.01764 18.53168,30.5 2.07406,6.63712 2.4518,7.1451 7.28682,9.79909 7.05393,3.87196 15.7713,12.06879 20.34357,19.12878 5.3824,8.31091 7.92755,17.13996 7.98258,27.6913 0.0696,13.34645 -3.33987,23.17162 -11.8439,34.13083 L 313.8673,424 h 21.06635 c 19.73302,0 21.19293,0.12658 23.06635,2 1.11111,1.11111 2,3.33333 2,5 0,1.66667 -0.88889,3.88889 -2,5 -1.98485,1.98485 -3.33333,2 -178,2 C 5.33333,438 3.98485,437.9848 2,436 Z m 124.36466,-18.28847 c -3.22556,-3.45866 -6.75742,-7.96409 -7.84857,-10.01208 l -1.98391,-3.72361 -36.51609,0.26208 L 43.5,404.5 l -0.29384,7.25161 c -0.26757,6.60311 -0.0704,7.47504 2.20454,9.75 L 47.90909,424 h 42.16011 42.16011 z m 167.87355,2.01613 c 15.88722,-7.8536 24.35564,-23.86231 21.67156,-40.96796 -2.11577,-13.4839 -10.03843,-23.69419 -23.58678,-30.39741 l -7.80637,-3.86229 -2.1947,-8.65772 c -4.39366,-17.33224 -11.97442,-28.08085 -26.74351,-37.91909 -12.08644,-8.05123 -31.11702,-11.37314 -45.57841,-7.956 -16.94723,4.00451 -31.23814,14.81959 -39.90302,30.19781 -3.13971,5.57228 -3.32268,5.70717 -11.17856,8.24108 -12.64386,4.07828 -21.98117,11.10326 -28.26482,21.26521 -9.29424,15.03071 -9.36282,35.20457 -0.17298,50.88585 5.82732,9.94358 20.17054,20.12322 31.51938,22.36988 2.475,0.48996 31.52409,0.81932 64.55352,0.73191 L 286.60705,423.5 Z m -36.674,-14.65671 c -1.79906,-1.98794 -1.85418,-6.87516 -0.12562,-11.13889 C 258.33567,391.71931 254.34426,387 251.57573,387 c -1.2535,0 -3.69175,1.35 -5.41831,3 -3.65587,3.49375 -7.30447,3.85295 -10.15742,1 -3.14376,-3.14376 -2.62721,-8.00063 1.25,-11.75315 8.83991,-8.55564 21.40926,-8.09365 29.4665,1.08304 5.78964,6.59404 6.57415,15.96253 1.91737,22.89682 -2.77186,4.1275 -8.18689,5.02966 -11.06966,1.84424 z M 195.69313,349.2134 c -5.42111,-5.99025 -6.2836,-17.94051 -1.90039,-26.33093 8.49197,-16.25549 30.58781,-18.77029 42.51287,-4.83854 5.91263,6.90758 4.41284,13.95607 -2.96959,13.95607 -2.22037,0 -4.2,-1.17664 -7.57098,-4.5 -3.73039,-3.6777 -5.23144,-4.5 -8.21442,-4.5 -7.79459,0 -13.26764,5.78661 -12.18167,12.87956 0.30487,1.99124 0.84066,5.26385 1.19065,7.27247 0.5084,2.9178 0.21455,4.07382 -1.46163,5.75 -2.56784,2.56784 -7.22328,2.72197 -9.40484,0.31137 z m -85.3636,37.0366 c -2.45339,-12.08802 0.44538,-29.69297 6.74842,-40.98485 L 120,340.0303 V 285.01515 230 H 81.5 43 v 80 80 h 34.04531 34.04532 z m 30.56191,-65.4127 c 2.41529,-1.52261 7.2319,-3.71362 10.70359,-4.86892 3.75638,-1.25005 6.53125,-2.79091 6.8533,-3.80557 0.29763,-0.93776 3.13101,-4.93766 6.29641,-8.88867 C 178.48067,286.1291 197.771,276.05409 219.5,274.67642 l 7,-0.44382 v -39.91166 c 0,-35.91082 -0.17074,-40.17212 -1.70332,-42.50987 -0.93682,-1.42902 -5.48433,-4.65924 -10.10557,-7.17828 C 201.47007,177.42599 197.018,171.72005 195.47134,160 c -0.58255,-4.41432 -1.37623,-6.11379 -4.02074,-8.60943 -1.8122,-1.71019 -4.73619,-3.39769 -6.49776,-3.75 -1.76156,-0.35231 -24.63409,-0.63069 -50.82784,-0.61861 -44.57675,0.0206 -47.89203,0.14321 -51.79704,1.91621 -5.07238,2.30302 -6.89607,5.00549 -7.80221,11.56183 -1.56311,11.30988 -6.39752,17.38236 -19.31999,24.26774 -10.71125,5.70719 -11.5507,7.13572 -12.03607,20.48226 L 42.77875,216 h 43.29617 c 43.07689,0 43.3079,0.011 45.61063,2.17431 L 134,220.34863 v 52.3847 c 0,41.64439 0.25628,52.22967 1.25,51.62852 0.6875,-0.4159 3.22615,-2.00195 5.64144,-3.52455 z M 156.5,265.34335 c -9.18633,-4.82765 -13.70866,-14.13662 -11.4472,-23.56344 2.09683,-8.74056 10.98737,-15.76876 19.9472,-15.76876 13.56734,0 23.41468,13.17081 19.6163,26.23677 -1.63388,5.62036 -5.65355,10.28773 -11.31664,13.14013 -4.05542,2.04264 -12.87239,2.01918 -16.79966,-0.0447 z m 12.86306,-13.84927 c 4.86005,-4.86004 0.63979,-12.71555 -5.94355,-11.06323 C 156.04733,242.28115 157.39516,253 165,253 c 1.57143,0 3.53481,-0.67766 4.36306,-1.50592 z M 167,101.5 V 69.999998 H 135.5 104 V 101.5 133 H 135.5 167 Z M 141,45 V 34 h -6 -6 v 11 11 h 6 6 z m 84.79289,-4.682153 C 225.6318,39.566506 217.625,33.343378 208,26.488672 l -17.5,-12.4631 -56.48641,0.237214 c -54.39037,0.228412 -56.49985,0.306982 -56.8484,2.117387 -0.19908,1.034095 0.2448,2.264704 0.98642,2.734687 0.74161,0.469983 26.01947,0.861405 56.17301,0.869827 l 54.82462,0.01531 17.06513,12.006457 c 13.67223,9.619314 17.34412,11.77493 18.46828,10.841961 0.77172,-0.640473 1.27133,-1.77923 1.11024,-2.530571 z m 56.47432,204.588183 c -6.56488,-1.23435 -10.92197,-3.72818 -15.59546,-8.92623 -4.95493,-5.51107 -6.67573,-10.3144 -6.66198,-18.59582 0.0178,-10.72456 6.36718,-20.0091 16.85667,-24.6491 6.64481,-2.93931 17.41104,-2.08767 23.83772,1.88564 12.06494,7.45918 16.75817,22.41828 10.94299,34.87948 -5.12455,10.98127 -17.73741,17.59511 -29.37994,15.40603 z m 13.85044,-17.78838 c 3.5012,-3.50121 3.88235,-4.38622 3.88235,-9.01469 0,-4.4231 -0.46089,-5.63525 -3.33524,-8.77171 -2.91604,-3.18195 -4.04653,-3.69836 -8.99429,-4.10867 -5.51659,-0.45748 -5.75989,-0.36845 -9.66476,3.53642 -3.52995,3.52994 -4.00571,4.56005 -4.00571,8.67301 0,8.93226 4.46891,13.45476 13.36765,13.52795 4.34552,0.0357 5.28408,-0.3764 8.75,-3.84231 z"
     id="path183"
     inkscape:connector-curvature="0" />
</svg>
