<?xml version="1.0" encoding="UTF-8" standalone="no"?>
<!-- Created with Inkscape (http://www.inkscape.org/) -->

<svg
   xmlns:dc="http://purl.org/dc/elements/1.1/"
   xmlns:cc="http://creativecommons.org/ns#"
   xmlns:rdf="http://www.w3.org/1999/02/22-rdf-syntax-ns#"
   xmlns:svg="http://www.w3.org/2000/svg"
   xmlns="http://www.w3.org/2000/svg"
   xmlns:sodipodi="http://sodipodi.sourceforge.net/DTD/sodipodi-0.dtd"
   xmlns:inkscape="http://www.inkscape.org/namespaces/inkscape"
   version="1.1"
   id="svg163"
   width="438.06931"
   height="437.82593"
   viewBox="0 0 438.06931 437.82593"
   sodipodi:docname="category-icon-2.svg"
   inkscape:version="0.92.4 (unknown)">
  <path
     d="m 40.913237,435.90786 c -1.6705,-1.67049 -2,-3.33333 -2,-10.09292 0,-14.50773 5.01489,-33.93712 12.7524,-49.40708 3.80813,-7.61378 12.17556,-20.21985 15.29503,-23.04292 1.07391,-0.97188 1.95257,-2.14731 1.95257,-2.61207 0,-0.46475 -14.625,-0.84501 -32.5,-0.84501 -31.1666705,0 -32.5820705,-0.082 -34.4999705,-2 -2.64339999,-2.6434 -2.53609999,-6.5742 0.25,-9.15848 1.2375,-1.14786 6.14597,-4.61928 10.9077505,-7.71427 11.5142,-7.48382 26.5025,-19.99595 37.00939,-30.89518 15.57049,-16.15192 16.71093,-24.21056 12.84016,-90.73207 -2.21456,-38.05859 -2.46332,-56.57426 -0.98748,-73.5 3.38582,-38.830441 13.6797,-62.561221 34.80358,-80.233692 14.753763,-12.343155 27.215563,-19.17348 42.828673,-23.474441 8.69952,-2.396468 11.53876,-2.704999 24.3479,-2.645811 12.20936,0.05642 16.0124,0.468439 24.07364,2.60814 17.55388,4.659338 34.43668,12.745726 49.42663,23.673964 3.82629,2.789517 7.319,5.071849 7.76156,5.071849 0.44256,0 3.04551,-1.135524 5.78432,-2.523386 14.61191,-7.404416 34.83991,-11.433482 48.1247,-9.585603 17.88223,2.48737 28.92834,8.178594 42.87234,22.088879 18.10241,18.05863 27.66133,38.910371 32.09886,70.020101 1.76452,12.37038 1.49636,48.48015 -0.5904,79.5 -2.54296,37.80141 -1.48818,55.48366 3.99668,67 4.65882,9.78194 33.29002,35.49435 52.20695,46.88475 8.52488,5.13306 10.47503,9.38494 6.24472,13.61525 -1.91795,1.91795 -3.33333,2 -34.5,2 -17.875,0 -32.5,0.38026 -32.5,0.84501 0,0.46476 0.87866,1.64019 1.95257,2.61207 3.11947,2.82307 11.4869,15.42914 15.29503,23.04292 7.7375,15.46996 12.7524,34.89935 12.7524,49.40708 0,6.75959 -0.32951,8.42243 -2,10.09292 -2.49224,2.49224 -6.08501,2.5615 -9.03326,0.17415 -1.97325,-1.59784 -2.36123,-3.18913 -3.10684,-12.74259 -1.76874,-22.66291 -9.07136,-41.51618 -22.72455,-58.66831 -21.77706,-27.35791 -53.1215,-41.55903 -89.52691,-40.56164 l -10.89157,0.29839 -1.19368,4 c -4.20786,14.10036 -16.1259,25.62321 -30.50732,29.49573 -7.01063,1.88776 -18.18184,1.44488 -25.56998,-1.01374 -13.3398,-4.4392 -25.59708,-17.48794 -28.07761,-29.8906 l -0.61828,-3.09139 H 164.3606 c -31.85873,0 -57.182,9.57815 -78.505283,29.69345 -19.63512,18.52278 -30.87232,42.52615 -32.87314,70.21914 -0.65877,9.11788 -1.03445,10.64106 -3.02141,12.25 -2.96153,2.3981 -6.55135,2.33359 -9.04753,-0.16259 z M 230.53564,342.92195 c 2.26733,-0.98381 5.95408,-3.44355 8.19278,-5.46608 6.28628,-5.67928 12.10516,-18.88263 7.55174,-17.13532 -0.89819,0.34467 -5.96069,1.33878 -11.25,2.20914 -11.07046,1.82164 -27.38398,1.36601 -38.54794,-1.07663 -3.81206,-0.83407 -7.06237,-1.38515 -7.2229,-1.22462 -0.74932,0.74933 1.92238,7.71118 4.5483,11.85183 7.42459,11.70735 23.67668,16.50478 36.72802,10.84168 z M 89.927257,332.08218 c 16.974593,-12.84759 45.884053,-22.15011 68.892813,-22.16842 l 7.40683,-0.006 -7.03728,-4.94208 c -19.79186,-13.89929 -34.11955,-32.04096 -43.26067,-54.77654 l -3.93273,-9.78138 -6,-0.68485 c -11.483193,-1.31072 -20.932723,-7.87958 -25.413133,-17.66598 -3.12019,-6.81534 -3.00551,-17.95127 0.25306,-24.57208 4.52748,-9.19902 13.17055,-15.5688 23.157103,-17.06638 l 4.49487,-0.67405 1.20824,-6.36926 c 1.8702,-9.85882 4.86801,-16.98741 7.68317,-18.27009 1.97461,-0.89969 3.81742,-0.64155 9.69769,1.35846 13.57929,4.61862 21.85613,5.75295 37.77904,5.17757 11.77181,-0.42537 16.26384,-1.03282 23.47806,-3.17488 20.2123,-6.00146 35.32707,-16.19459 48.64969,-32.80845 9.13182,-11.38776 10.15078,-11.47858 20.36093,-1.81465 15.35333,14.53196 32.68511,22.34778 54.5683,24.60773 3.575,0.36921 7.28921,1.36934 8.2538,2.22252 1.952,1.72655 7.18385,17.18 8.25128,24.37204 0.66888,4.50675 0.80435,4.65621 4.79914,5.29501 6.13292,0.98069 12.71816,4.20927 17.06531,8.36669 4.16372,3.982 8.55142,12.14627 8.70665,16.20065 l 0.0957,2.5 0.79384,-2.62393 c 1.53054,-5.05875 2.20875,-38.08437 1.06534,-51.87597 -2.29391,-27.66876 -7.87473,-45.21731 -19.61023,-61.663141 -18.79701,-26.34165 -43.39446,-34.621235 -73.42083,-24.7137 -4.125,1.36108 -10.59706,4.25269 -14.38235,6.42578 -3.78529,2.17309 -8.08719,3.95107 -9.55977,3.95107 -1.74353,0 -4.57498,-1.6277 -8.11765,-4.66655 -6.57762,-5.64219 -19.25855,-14.000704 -27.44023,-18.086976 -21.2745,-10.625365 -44.50859,-13.769327 -64.5,-8.727931 -15.97407,4.028309 -37.75273,17.993807 -48.153913,30.878547 -11.31888,14.02156 -17.23242,31.945171 -19.82975,60.102901 -1.49687,16.22751 -1.25602,32.50298 1.07763,72.82198 2.24961,38.86702 2.08849,59.99499 -0.54975,72.09046 -3.69413,16.93632 -9.64296,24.28843 -42.04422,51.96208 l -3,2.56228 26.72971,0.0316 26.72972,0.0316 z m 313.895753,1.54408 c -1.42463,-1.22012 -6.53633,-5.57686 -11.35933,-9.68165 -12.85396,-10.93983 -24.10465,-23.37537 -27.55385,-30.45562 -5.62276,-11.542 -6.49434,-17.50885 -6.43899,-44.08113 0.0275,-13.2 0.36874,-26.475 0.75833,-29.5 l 0.70833,-5.5 -2.44829,5.86759 c -4.80213,11.50883 -13.0563,17.76239 -25.54497,19.35348 l -6.11387,0.77893 -3.82336,9.5 c -9.17155,22.78877 -23.69216,41.2386 -43.28568,54.99859 l -7.12175,5.00141 7.40683,0.006 c 23.10005,0.0184 49.83696,8.61958 68.81962,22.13909 l 5.41279,3.85491 26.58721,-0.0316 26.58721,-0.0316 z M 236.47083,308.01219 c 19.07892,-3.9377 32.73316,-11.43487 47.5426,-26.10433 15.50674,-15.36017 23.90985,-30.10106 29.60079,-51.92623 4.77564,-18.31494 4.14611,-45.49372 -1.44159,-62.23806 l -1.75939,-5.27227 -8.31073,-1.27737 c -16.4307,-2.52542 -34.65855,-10.51277 -47.3149,-20.73313 l -6.62563,-5.35038 -7.37437,7.46092 c -8.38006,8.47841 -17.40729,15.41076 -26.87437,20.63784 -8.56193,4.72732 -25.44087,10.26767 -35.81188,11.75491 -11.98846,1.71918 -34.5852,0.7311 -44.62997,-1.95153 -4.36801,-1.16655 -8.28371,-1.77914 -8.70155,-1.3613 -1.63539,1.63539 -3.8566,19.11674 -3.8566,30.35213 0,35.95072 15.99052,68.89238 43.5,89.61322 20.37013,15.3433 47.37957,21.48888 72.05759,16.39558 z m -63.55759,-78.13216 c -7.2051,-1.26527 -12.69275,-5.59924 -15.45227,-12.2037 -3.25487,-7.78999 -0.89332,-14.76847 4.99772,-14.76847 3.21088,0 7.45455,4.15544 7.45455,7.29956 0,5.36649 8.34419,7.90252 11.4433,3.47793 0.85618,-1.22237 1.5567,-3.22984 1.5567,-4.46104 0,-2.86163 3.68321,-6.31645 6.73402,-6.31645 3.25928,0 7.27103,4.26678 7.24402,7.70455 -0.0251,3.19845 -3.275,10.86112 -5.78066,13.62985 -3.85224,4.25667 -11.88695,6.74592 -18.19738,5.63777 z m 84.79914,-0.0134 c -6.04565,-1.02587 -11.6371,-5.4138 -14.3652,-11.27317 -1.32792,-2.8521 -2.4188,-6.44358 -2.42417,-7.98108 -0.012,-3.43844 4.00581,-7.70452 7.25621,-7.70452 3.05081,0 6.73402,3.45482 6.73402,6.31645 0,3.81725 2.74543,6.68355 6.40172,6.68355 3.7447,0 6.59828,-2.54043 6.59828,-5.8742 0,-2.99626 4.32005,-7.1258 7.45455,-7.1258 5.89104,0 8.25259,6.97848 4.99772,14.76847 -3.70534,8.86814 -12.94134,13.8383 -22.65313,12.19033 z m -149.28282,-5.70877 c -0.38371,-0.9625 -0.94609,-8.11267 -1.24972,-15.88926 l -0.55207,-14.13926 -3.04242,0.87256 c -4.278863,1.22716 -9.526973,6.65323 -10.719893,11.08339 -1.8804,6.98328 1.60252,14.40317 8.322233,17.72938 5.33222,2.63941 8.21169,2.77587 7.24187,0.34319 z m 228.07914,-0.15388 c 6.65639,-3.02301 10.34045,-10.90671 8.42347,-18.02583 -1.23179,-4.5745 -7.90544,-11.07029 -11.37342,-11.07029 -2.3238,0 -2.35469,0.14589 -2.91146,13.75 -0.30951,7.5625 -0.87444,14.5375 -1.25539,15.5 -0.92628,2.34031 1.75235,2.28239 7.1168,-0.15388 z M 108.91324,435.90786 c -1.89116,-1.89116 -2,-3.33333 -2,-26.5 0,-23.16667 0.10884,-24.60884 2,-26.5 2.52104,-2.52104 6.09234,-2.55556 9.13922,-0.0883 l 2.36078,1.91164 v 24.67671 24.67671 l -2.36078,1.91164 c -3.04688,2.46716 -6.61818,2.43264 -9.13922,-0.0884 z m 210.86078,0.0883 -2.36078,-1.91164 V 409.40781 384.7311 l 2.36078,-1.91164 c 3.04688,-2.46721 6.61818,-2.43269 9.13922,0.0883 1.89116,1.89116 2,3.33333 2,26.5 0,23.16667 -0.10884,24.60884 -2,26.5 -2.52104,2.52104 -6.09234,2.55556 -9.13922,0.0883 z M 25.913237,94.907869 c -2.75593,-2.75592 -2.9353,-15.85374 -0.25,-18.25476 3.57489,-3.19643 9.7521,-2.18502 11.28537,1.84779 1.75367,4.61251 1.17348,12.87174 -1.10795,15.77211 -2.53576,3.2237 -7.0499,3.51238 -9.92742,0.63486 z M 5.1720265,73.261089 c -4.64925999,-1.01651 -6.62516,-6.95743 -3.70206,-11.130714 1.3865,-1.979492 2.4252,-2.222506 9.4999705,-2.222506 8.77631,0 11.9433,1.694221 11.9433,6.38922 0,4.5271 -2.94271,6.72393 -9.51904,7.10629 -3.28953,0.19125 -6.9895005,0.12723 -8.2221705,-0.14229 z m 38.7412105,-0.0093 c -5.02574,-2.02682 -6.76481,-8.43686 -3.17126,-11.688972 2.68143,-2.426667 16.24517,-2.35662 18.39799,0.09501 2.87183,3.270442 3.00724,5.866472 0.46042,8.827322 -2.02642,2.35585 -3.27354,2.81826 -8.2863,3.0724 -3.24547,0.16454 -6.57585,0.02695 -7.40085,-0.30576 z m 351.654993,-1.1727 c -1.33073,-1.47044 -1.65499,-4.00331 -1.65499,-12.927421 0,-10.799006 0.0711,-11.15464 2.63486,-13.171259 3.46016,-2.721766 5.91196,-2.616666 8.91059,0.381965 2.26555,2.265549 2.45455,3.194596 2.45455,12.065742 0,9.117743 -0.90881,13.051183 -3.3997,14.714403 -2.08473,1.39201 -7.28237,0.7741 -8.94531,-1.06343 z M 28.913237,58.188431 c -4.09519,-1.478465 -5,-3.457391 -5,-10.93555 0,-6.011679 0.36306,-7.70807 2,-9.345012 2.87752,-2.877518 7.39166,-2.588839 9.92742,0.634859 2.75734,3.505393 2.95681,14.120953 0.32258,17.167461 -1.95503,2.261001 -4.98392,3.296356 -7.25,2.478242 z M 365.56823,42.079128 c -1.69831,-1.876605 -2.19879,-6.810981 -0.88968,-8.771555 1.66322,-2.490897 5.59666,-3.399704 14.7144,-3.399704 8.87115,0 9.8002,0.188997 12.06574,2.454545 2.99864,2.998632 3.10374,5.450432 0.38197,8.910596 -2.02005,2.568074 -2.3583,2.634859 -13.34501,2.634859 -9.65056,0 -11.51055,-0.263119 -12.92742,-1.828741 z m 44,0 c -1.69831,-1.876605 -2.19879,-6.810981 -0.88968,-8.771555 1.66322,-2.490897 5.59666,-3.399704 14.7144,-3.399704 8.87115,0 9.8002,0.188997 12.06574,2.454545 2.97301,2.973008 3.15728,6.842721 0.45455,9.545455 -1.76495,1.764948 -3.33333,2 -13.34501,2 -9.72087,0 -11.58194,-0.261801 -13,-1.828741 z M 395.46994,27.685363 c -1.17516,-1.677786 -1.5567,-4.863994 -1.5567,-13 0,-9.4441612 0.24743,-11.0249232 2,-12.7774942 2.70273,-2.70273396 6.57245,-2.51846196 9.54545,0.454545 2.27584,2.275836 2.45455,3.176114 2.45455,12.3651422 0,8.512087 -0.29247,10.282407 -2.07258,12.545454 -2.71439,3.450787 -8.09273,3.664636 -10.37072,0.412353 z"
     id="path244"
     inkscape:connector-curvature="0" />
</svg>
