<?xml version="1.0" encoding="UTF-8" standalone="no"?>
<!-- Created with Inkscape (http://www.inkscape.org/) -->

<svg
   xmlns:dc="http://purl.org/dc/elements/1.1/"
   xmlns:cc="http://creativecommons.org/ns#"
   xmlns:rdf="http://www.w3.org/1999/02/22-rdf-syntax-ns#"
   xmlns:svg="http://www.w3.org/2000/svg"
   xmlns="http://www.w3.org/2000/svg"
   xmlns:sodipodi="http://sodipodi.sourceforge.net/DTD/sodipodi-0.dtd"
   xmlns:inkscape="http://www.inkscape.org/namespaces/inkscape"
   version="1.1"
   id="svg173"
   width="360"
   height="438"
   viewBox="0 0 360 438"
   sodipodi:docname="category-icon-1.svg"
   inkscape:version="0.92.4 (unknown)">
  <path
     d="m 2,436 c -1.11112,-1.11111 -2,-3.33333 -2,-5 0,-1.66667 0.88888,-3.88889 2,-5 1.91658,-1.91658 3.33333,-2 33.9686,-2 h 31.9686 l -3.62754,-6.18945 C 59.2274,409.13899 51.56575,392.66139 46.39387,379.27976 17.39831,304.25722 16.72951,197.17922 44.51657,78.71336 53.42889,40.717046 64.71045,4.016646 68.23744,1.546243 70.16301,0.197522 77.35417,0 124.53138,0 c 41.94351,0 54.47355,0.283117 55.81095,1.261052 4.48451,3.279152 22.76754,69.160398 30.59296,110.238948 9.70816,50.96181 13.05414,85.04355 13.06064,133.034 l 0.004,30.034 7.89087,0.229 c 31.40296,0.91135 60.26703,23.62352 68.73648,54.08644 1.61721,5.8168 1.8769,6.13181 7.27486,8.82435 16.12648,8.04399 28.13205,28.17573 28.08301,47.09143 -0.0316,12.1674 -5.12026,25.52838 -13.23317,34.74512 L 318.83003,424 h 18.58498 c 17.25166,0 18.72847,0.14348 20.58499,2 1.11111,1.11111 2,3.33333 2,5 0,1.66667 -0.88889,3.88889 -2,5 -1.98485,1.98485 -3.33333,2 -178,2 C 5.33333,438 3.98484,437.9848 2,436 Z m 129.86184,-18.06477 c -13.88168,-14.81637 -19.92747,-37.30263 -15.30388,-56.92006 2.68335,-11.3852 7.87569,-20.62088 16.34329,-29.06999 4.17931,-4.17019 8.72375,-8.31523 10.09875,-9.21122 2.32849,-1.5173 -0.95338,-1.63265 -47.8379,-1.68151 l -50.3379,-0.0525 0.6889,4.25 c 1.44697,8.92673 8.47343,34.80169 12.03398,44.31516 7.14608,19.0937 12.42992,30.18646 22.71383,47.68484 l 3.96702,6.75 h 26.65804 26.65804 z m 160.90215,4.63972 c 10.96482,-2.9189 20.19991,-10.71141 25.54323,-21.55322 2.9245,-5.93391 3.19011,-7.27835 3.161,-16 -0.0251,-7.5292 -0.51073,-10.72428 -2.32059,-15.26839 -3.3043,-8.29624 -10.67093,-15.91426 -19.70817,-20.38071 -4.05715,-2.00515 -7.99986,-4.37179 -8.76157,-5.25918 -0.76171,-0.8874 -1.98485,-4.53845 -2.7181,-8.11345 -4.34058,-21.16296 -22.66488,-40.12186 -44.08414,-45.61086 -8.17275,-2.09438 -21.64713,-2.12367 -29.58056,-0.0643 -15.2706,3.96396 -30.85298,15.72565 -38.21355,28.84386 -3.91482,6.97708 -4.17488,7.18632 -11.56834,9.30736 -11.26091,3.23053 -20.0673,9.38303 -26.18708,18.29536 -6.63663,9.66501 -9.25716,17.76987 -9.30167,28.76848 -0.0884,21.83864 15.75681,41.80902 37.32343,47.04029 7.91753,1.92051 119.19942,1.9159 126.41611,-0.005 z M 262.96907,404.75 c -1.51362,-1.61494 -1.948,-3.02619 -1.53896,-5 0.31344,-1.5125 0.84857,-4.11775 1.18918,-5.78945 0.4411,-2.16491 0.10878,-3.60355 -1.15499,-5 -2.53306,-2.799 -6.17103,-2.42523 -10.11708,1.03945 -1.87925,1.65 -4.32161,3 -5.42747,3 C 243.24033,393 239,388.643 239,385.88985 c 0,-5.87211 9.87857,-12.90844 18.06572,-12.86789 14.43573,0.0715 23.7738,14.34167 18.31403,27.98698 -2.52297,6.30552 -8.35843,8.06455 -12.41068,3.74106 z m -61.24535,-55 c -4.83529,-3.64423 -6.32864,-17.80322 -2.67397,-25.35278 C 203.07036,316.09176 213.87124,309 222.5,309 c 5.33387,0 12.89246,3.28696 17.52667,7.62171 5.25221,4.91284 6.63944,8.24619 4.84783,11.64881 -1.58529,3.01077 -2.80216,3.69613 -6.59456,3.71417 -2.45273,0.0117 -3.76337,-0.72281 -5.5,-3.08216 -4.90352,-6.6618 -12.50267,-7.8409 -18.21416,-2.82614 -4.2734,3.75209 -5.22379,7.87876 -3.15524,13.70036 1.05274,2.96278 1.23782,5.01794 0.60241,6.6892 -1.57045,4.13058 -6.90633,5.83365 -10.28923,3.28405 z m -31.78576,-46.34303 c 5.84565,-8.58243 20.51735,-19.36792 32.53334,-23.91594 5.21734,-1.97475 6.08271,-2.68505 6.8537,-5.62557 1.43467,-5.47177 0.11749,-74.29775 -1.73897,-90.86546 -0.89362,-7.975 -1.82693,-15.0625 -2.07401,-15.75 C 205.15765,166.264 187.97294,166 124.14493,166 H 43.22709 l -0.62302,4.25 c -1.58114,10.78592 -3.64309,40.26465 -4.21432,60.25 -0.6152,21.52383 0.28094,42.7973 2.76929,65.73992 L 42.32607,307 l 62.58696,-0.007 62.58697,-0.007 2.43796,-3.57936 z m -9.03068,-38.73374 c -11.7262,-6.19071 -14.40724,-21.33953 -5.56,-31.41598 9.3153,-10.60954 25.63001,-9.06311 32.74369,3.10369 2.63441,4.50573 2.96232,5.90676 2.66078,11.36849 -0.27305,4.94584 -0.95258,7.09356 -3.29783,10.42322 C 183.54945,263.69599 177.21807,267 170.5,267 c -3.49874,0 -6.61901,-0.75684 -9.59272,-2.32677 z m 14.26398,-13.32822 c 2.41285,-2.1836 2.3274,-6.84635 -0.17126,-9.34501 -5.78433,-5.78433 -14.17809,2.01763 -9.4433,8.77749 1.8888,2.69664 6.93291,2.99438 9.61456,0.56752 z M 203.37098,149.75 C 201.18095,135.73847 196.42263,109.67906 194.0154,98.513233 192.35693,90.8205 191,84.183 191,83.76323 191,83.34345 161.09234,83 124.53854,83 H 58.07709 l -1.00036,3.75 c -2.29021,8.58521 -12.06394,60.79455 -12.07458,64.5 -10e-4,0.4125 35.71045,0.75 79.35918,0.75 h 79.36133 z M 187,68.15019 C 187,66.96286 174.47659,23.384596 172.73166,18.5 l -1.42893,-4 -10.43902,-0.281678 -10.43902,-0.281677 -1.31854,3.646335 c -0.72519,2.005484 -2.95824,5.465352 -4.96234,7.688597 C 131.33551,39.480467 107.40702,35.708769 99.59736,18.25 L 97.69625,14 H 87.4037 77.11114 l -3.57331,11.446613 c -1.96532,6.295636 -5.17204,17.433136 -7.12605,24.75 C 64.45777,57.513476 62.46416,64.7375 61.98154,66.25 L 61.10404,69 h 62.94798 C 158.67341,69 187,68.61758 187,68.15019 Z M 132.23422,17.029313 135.5,14.058627 124.19098,14.029317 c -11.97751,-0.03105 -12.76053,0.432905 -6.83187,4.048001 4.88411,2.978167 10.91621,2.553186 14.87511,-1.048001 z M 287.62159,244.85122 c -13.41082,-1.98523 -23.73111,-15.67032 -22.30625,-29.57891 1.95196,-19.05376 22.11892,-29.89215 39.47891,-21.21726 20.13407,10.06111 19.78278,38.17054 -0.61075,48.87103 -3.52194,1.84796 -11.11836,2.73096 -16.56191,1.92514 z m 12.18859,-15.87685 C 303.1519,226.93697 306,221.85667 306,217.93325 c 0,-3.60012 -3.17958,-9.07159 -6.41996,-11.04757 -11.23672,-6.85214 -25.07566,5.52007 -19.10002,17.07568 3.61466,6.98998 12.36533,9.25934 19.33016,5.01301 z"
     id="path223"
     inkscape:connector-curvature="0" />
</svg>
