<?xml version="1.0" encoding="UTF-8" standalone="no"?>
<!-- Created with Inkscape (http://www.inkscape.org/) -->

<svg
   xmlns:dc="http://purl.org/dc/elements/1.1/"
   xmlns:cc="http://creativecommons.org/ns#"
   xmlns:rdf="http://www.w3.org/1999/02/22-rdf-syntax-ns#"
   xmlns:svg="http://www.w3.org/2000/svg"
   xmlns="http://www.w3.org/2000/svg"
   xmlns:sodipodi="http://sodipodi.sourceforge.net/DTD/sodipodi-0.dtd"
   xmlns:inkscape="http://www.inkscape.org/namespaces/inkscape"
   version="1.1"
   id="svg45"
   width="10.191282"
   height="5.9975753"
   viewBox="0 0 10.191283 5.9975753"
   sodipodi:docname="mail-icon.svg"
   inkscape:version="0.92.4 (unknown)">
  <path
     style="stroke-width:0.31999999"
     d="m 0.21842002,5.8474728 c -0.262017,-0.2620166 -0.302788,-5.23467084 -0.04292,-5.23467084 0.09813,0 1.20484998,0.86399994 2.45937798,1.91999994 1.254528,1.0559999 2.37152,1.9199999 2.482205,1.9199999 0.110684,0 1.227676,-0.864 2.482204,-1.9199999 1.2545281,-1.056 2.3670714,-1.91999994 2.47232,-1.91999994 0.105247,0 0.149536,1.18799994 0.09842,2.63999984 l -0.09294,2.64 -4.818663,0.088004 C 2.60816,6.0292078 0.34016002,5.9692088 0.21842402,5.8474726 Z M 2.745245,1.9641447 0.53340702,0.13280197 2.825245,0.03878287 c 1.260511,-0.0517105 3.32495,-0.0517105 4.587643,0 L 9.7086928,0.13280197 7.457266,1.9728019 C 6.21898,2.9848019 5.149868,3.8089062 5.08146,3.8041446 5.01305,3.7993846 3.961756,2.9713833 2.745245,1.9641447 Z"
     id="path55"
     inkscape:connector-curvature="0" />
</svg>
