<?xml version="1.0" encoding="UTF-8" standalone="no"?>
<!-- Created with Inkscape (http://www.inkscape.org/) -->

<svg
   xmlns:dc="http://purl.org/dc/elements/1.1/"
   xmlns:cc="http://creativecommons.org/ns#"
   xmlns:rdf="http://www.w3.org/1999/02/22-rdf-syntax-ns#"
   xmlns:svg="http://www.w3.org/2000/svg"
   xmlns="http://www.w3.org/2000/svg"
   xmlns:sodipodi="http://sodipodi.sourceforge.net/DTD/sodipodi-0.dtd"
   xmlns:inkscape="http://www.inkscape.org/namespaces/inkscape"
   version="1.1"
   id="svg128"
   width="1447.1981"
   height="1552.6501"
   viewBox="0 0 1447.1981 1552.6501"
   sodipodi:docname="phone-icon.svg"
   inkscape:version="0.92.4 (unknown)">
  <path
     d="m 985.98629,1551.8143 c -142.7788,-7.0577 -291.9182,-72.2366 -442.4625,-193.3709 -45.7936,-36.8474 -83.538,-71.2391 -133.0469,-121.2285 -54.5203,-55.0496 -102.8817,-109.5265 -152.1156,-171.3515 C 31.943888,781.54184 -46.645112,523.2625 26.500588,303.86343 c 16.1461,-48.43017 38.5167,-91.38928 69.0455,-132.59086 23.259602,-31.39105 56.487102,-65.20924 86.542102,-88.080754 4.4363,-3.37595 19.9613,-16.583375 34.5,-29.349833 32.9574,-28.939848 40.1782,-34.373009 56.4341,-42.462473 17.7704,-8.843181 24.5194,-10.62173697 42.5,-11.19996297 13.1921,-0.424239 15.4019,-0.234853 24.5,2.09968897 41.6394,10.684634 83.0424,50.072157 130.7745,124.408534 46.7719,72.84106 60.3785,95.3226 73.1802,120.91217 21.8,43.57643 31.5453,78.47489 31.5453,112.96561 0,41.16991 -14.6496,74.09654 -47.1411,105.95504 -20.4223,20.02449 -65.6412,58.38413 -82.1213,69.66433 -19.933,13.64356 -28.1692,20.28641 -38.5099,31.05963 -13.9818,14.56675 -22.9121,30.35732 -28.4404,50.28871 -1.9148,6.90365 -2.1743,10.37419 -2.1929,29.33017 -0.023,23.44598 0.93,30.1231 7.5646,53 17.5036,60.35466 69.204,142.44625 146.7409,233 113.1628,132.16047 205.5053,203.94217 278.4811,216.47477 11.5652,1.9862 32.0786,1.9652 42.6684,-0.044 27.685,-5.2517 49.6243,-19.6338 78.508,-51.4653 9.286,-10.2337 21.842,-22.034 44.4426,-41.7677 42.43151,-37.049 53.36641,-44.9829 74.60311,-54.129 22.5187,-9.69807 49.7321,-13.36677 74.0561,-9.98367 41.4776,5.769 87.7252,29.29187 140.3105,71.36587 19.2496,15.4018 88.3455,75.1005 105.3963,91.0623 21.6627,20.2789 39.6399,40.8775 52.6535,60.3312 35.0249,52.358 32.7403,99.2123 -6.8907,141.3226 -4.7458,5.0428 -21.4538,20.4168 -37.1288,34.1644 -15.675,13.7477 -33.225,29.5431 -39,35.1011 -45.8645,44.1405 -106.0169,80.0971 -170,101.6186 -44.2672,14.8898 -85.0612,22.4483 -134.5,24.9207 -21.8168,1.091 -26.5766,1.0889 -49.03601,-0.021 z"
     id="path169"
     inkscape:connector-curvature="0" />
</svg>
