<?xml version="1.0" encoding="UTF-8" standalone="no"?>
<!-- Created with Inkscape (http://www.inkscape.org/) -->

<svg
   xmlns:dc="http://purl.org/dc/elements/1.1/"
   xmlns:cc="http://creativecommons.org/ns#"
   xmlns:rdf="http://www.w3.org/1999/02/22-rdf-syntax-ns#"
   xmlns:svg="http://www.w3.org/2000/svg"
   xmlns="http://www.w3.org/2000/svg"
   xmlns:sodipodi="http://sodipodi.sourceforge.net/DTD/sodipodi-0.dtd"
   xmlns:inkscape="http://www.inkscape.org/namespaces/inkscape"
   version="1.1"
   id="svg45"
   width="689.41797"
   height="655.83221"
   viewBox="0 0 689.41797 655.83222"
   sodipodi:docname="star-icon.svg"
   inkscape:version="0.92.4 (unknown)">
  <path
     style="stroke-width:0.31999999"
     d="m 132.15681,654.90367 c 0.5722,-2.7895 40.1999,-235.62605 40.1909,-236.1465 -0.01,-0.3998 -30.8052,-30.57769 -86.198401,-84.46204 C 38.746009,288.18312 -0.02119131,250.43141 8.6908426e-6,250.40243 0.02100869,250.37343 53.462409,242.55574 118.75841,233.02976 c 65.296,-9.52597 118.9287,-17.43334 119.1838,-17.57193 0.2551,-0.13859 24.3109,-48.67475 53.45744,-107.85815 C 320.54618,48.416286 344.51559,-0.00357029 344.66506,1.9745379e-7 344.8145,0.0035712 368.81223,48.293434 397.99335,107.31081 c 29.18115,59.01737 53.17101,107.48138 53.31085,107.69779 0.16419,0.25412 42.29904,6.46079 118.97423,17.52549 65.296,9.42262 118.90832,17.16556 119.1385,17.20653 0.23017,0.041 -38.28983,37.86291 -85.6,84.04875 -47.31018,46.18582 -86.06195,84.21827 -86.11507,84.51654 -0.0531,0.29827 9.05776,53.65331 20.24637,118.56672 11.1886,64.91341 20.30406,118.1137 20.25657,118.22288 -0.0475,0.10916 -47.89436,-24.90217 -106.32636,-55.58073 -67.9104,-35.65501 -106.48816,-55.73978 -106.92784,-55.66996 -0.5152,0.0819 -195.35389,102.49729 -210.30829,110.54692 l -2.676,1.44048 z"
     id="path55"
     inkscape:connector-curvature="0" />
</svg>
